<svg width="32" height="32" viewBox="0 0 32 32" fill="none" xmlns="http://www.w3.org/2000/svg">
<path d="M6.66663 21.3337V14.667C6.66663 14.2892 6.7944 13.9725 7.04996 13.717C7.30552 13.4614 7.62218 13.3337 7.99996 13.3337C8.37774 13.3337 8.6944 13.4614 8.94996 13.717C9.20552 13.9725 9.33329 14.2892 9.33329 14.667V21.3337C9.33329 21.7114 9.20552 22.0281 8.94996 22.2837C8.6944 22.5392 8.37774 22.667 7.99996 22.667C7.62218 22.667 7.30552 22.5392 7.04996 22.2837C6.7944 22.0281 6.66663 21.7114 6.66663 21.3337ZM14.6666 21.3337V14.667C14.6666 14.2892 14.7944 13.9725 15.05 13.717C15.3055 13.4614 15.6222 13.3337 16 13.3337C16.3777 13.3337 16.6944 13.4614 16.95 13.717C17.2055 13.9725 17.3333 14.2892 17.3333 14.667V21.3337C17.3333 21.7114 17.2055 22.0281 16.95 22.2837C16.6944 22.5392 16.3777 22.667 16 22.667C15.6222 22.667 15.3055 22.5392 15.05 22.2837C14.7944 22.0281 14.6666 21.7114 14.6666 21.3337ZM28 10.667H3.86663C3.53329 10.667 3.24996 10.5503 3.01663 10.317C2.78329 10.0837 2.66663 9.80033 2.66663 9.46699V8.73366C2.66663 8.48921 2.72774 8.2781 2.84996 8.10033C2.97218 7.92255 3.13329 7.7781 3.33329 7.66699L14.8 1.93366C15.1777 1.75588 15.5777 1.66699 16 1.66699C16.4222 1.66699 16.8222 1.75588 17.2 1.93366L28.6 7.63366C28.8444 7.74477 29.0277 7.91144 29.15 8.13366C29.2722 8.35588 29.3333 8.58921 29.3333 8.83366V9.33366C29.3333 9.71144 29.2055 10.0281 28.95 10.2837C28.6944 10.5392 28.3777 10.667 28 10.667ZM8.63329 8.00033H23.3666L16 4.33366L8.63329 8.00033ZM3.99996 28.0003C3.62218 28.0003 3.30551 27.8725 3.04996 27.617C2.7944 27.3614 2.66663 27.0448 2.66663 26.667C2.66663 26.2892 2.7944 25.9725 3.04996 25.717C3.30551 25.4614 3.62218 25.3337 3.99996 25.3337H17.4C17.7777 25.3337 18.0944 25.4614 18.35 25.717C18.6055 25.9725 18.7333 26.2892 18.7333 26.667C18.7333 27.0448 18.6055 27.3614 18.35 27.617C18.0944 27.8725 17.7777 28.0003 17.4 28.0003H3.99996ZM23.05 16.617C22.7944 16.3614 22.6666 16.0448 22.6666 15.667V14.667C22.6666 14.2892 22.7944 13.9725 23.05 13.717C23.3055 13.4614 23.6222 13.3337 24 13.3337C24.3777 13.3337 24.6944 13.4614 24.95 13.717C25.2055 13.9725 25.3333 14.2892 25.3333 14.667V15.667C25.3333 16.0448 25.2055 16.3614 24.95 16.617C24.6944 16.8725 24.3777 17.0003 24 17.0003C23.6222 17.0003 23.3055 16.8725 23.05 16.617ZM21.3333 24.7337V22.167C21.3333 21.9225 21.3944 21.6892 21.5166 21.467C21.6388 21.2448 21.8222 21.0781 22.0666 20.967L26.0666 18.967C26.2444 18.8559 26.4444 18.8003 26.6666 18.8003C26.8888 18.8003 27.0889 18.8559 27.2666 18.967L31.2666 20.967C31.5111 21.0781 31.6944 21.2448 31.8166 21.467C31.9389 21.6892 32 21.9225 32 22.167V24.7337C32 26.4003 31.5666 27.8392 30.7 29.0503C29.8333 30.2614 28.6555 31.1781 27.1666 31.8003C27.1222 31.8225 26.9555 31.8559 26.6666 31.9003C26.6222 31.9003 26.4555 31.867 26.1666 31.8003C24.6777 31.1781 23.5 30.2614 22.6333 29.0503C21.7666 27.8392 21.3333 26.4003 21.3333 24.7337ZM25.7 25.167L25.1 24.567C24.9 24.367 24.6666 24.2725 24.4 24.2837C24.1333 24.2948 23.9 24.4003 23.7 24.6003C23.5 24.8003 23.4 25.0337 23.4 25.3003C23.4 25.567 23.5 25.8003 23.7 26.0003L24.7666 27.067C25.0333 27.3337 25.3444 27.467 25.7 27.467C26.0555 27.467 26.3666 27.3337 26.6333 27.067L29.6333 24.1003C29.8333 23.9003 29.9333 23.667 29.9333 23.4003C29.9333 23.1337 29.8333 22.9003 29.6333 22.7003C29.4333 22.5003 29.2 22.4059 28.9333 22.417C28.6666 22.4281 28.4333 22.5225 28.2333 22.7003L25.7 25.167Z" fill="currentColor"/>
</svg>
