<svg width="32" height="32" viewBox="0 0 32 32" fill="none" xmlns="http://www.w3.org/2000/svg">
<path d="M7.99998 16.0666C7.99998 16.4221 8.0222 16.7721 8.06665 17.1166C8.11109 17.461 8.18887 17.7999 8.29998 18.1332C8.41109 18.511 8.39998 18.8721 8.26665 19.2166C8.13331 19.561 7.89998 19.811 7.56665 19.9666C7.21109 20.1443 6.86109 20.161 6.51665 20.0166C6.1722 19.8721 5.94442 19.611 5.83331 19.2332C5.65554 18.7221 5.52776 18.1999 5.44998 17.6666C5.3722 17.1332 5.33331 16.5999 5.33331 16.0666C5.33331 13.0888 6.36665 10.5555 8.43331 8.46657C10.5 6.37768 13.0222 5.33324 16 5.33324H16.2333L15.0333 4.13324C14.7889 3.88879 14.6666 3.57768 14.6666 3.1999C14.6666 2.82212 14.7889 2.51101 15.0333 2.26657C15.2778 2.02212 15.5889 1.8999 15.9666 1.8999C16.3444 1.8999 16.6555 2.02212 16.9 2.26657L20.3666 5.73324C20.6333 5.9999 20.7666 6.31101 20.7666 6.66657C20.7666 7.02212 20.6333 7.33324 20.3666 7.5999L16.9 11.0666C16.6555 11.311 16.3444 11.4332 15.9666 11.4332C15.5889 11.4332 15.2778 11.311 15.0333 11.0666C14.7889 10.8221 14.6666 10.511 14.6666 10.1332C14.6666 9.75546 14.7889 9.44435 15.0333 9.1999L16.2333 7.9999H16C13.7778 7.9999 11.8889 8.78324 10.3333 10.3499C8.77776 11.9166 7.99998 13.8221 7.99998 16.0666ZM24 15.9332C24 15.5777 23.9778 15.2277 23.9333 14.8832C23.8889 14.5388 23.8111 14.1999 23.7 13.8666C23.5889 13.4888 23.6 13.1277 23.7333 12.7832C23.8666 12.4388 24.1 12.1888 24.4333 12.0332C24.7889 11.8555 25.1389 11.8388 25.4833 11.9832C25.8278 12.1277 26.0555 12.3888 26.1666 12.7666C26.3444 13.2777 26.4722 13.7999 26.55 14.3332C26.6278 14.8666 26.6666 15.3999 26.6666 15.9332C26.6666 18.911 25.6333 21.4443 23.5666 23.5332C21.5 25.6221 18.9778 26.6666 16 26.6666H15.7666L16.9666 27.8666C17.2111 28.111 17.3333 28.4221 17.3333 28.7999C17.3333 29.1777 17.2111 29.4888 16.9666 29.7332C16.7222 29.9777 16.4111 30.0999 16.0333 30.0999C15.6555 30.0999 15.3444 29.9777 15.1 29.7332L11.6333 26.2666C11.3666 25.9999 11.2333 25.6888 11.2333 25.3332C11.2333 24.9777 11.3666 24.6666 11.6333 24.3999L15.1 20.9332C15.3444 20.6888 15.6555 20.5666 16.0333 20.5666C16.4111 20.5666 16.7222 20.6888 16.9666 20.9332C17.2111 21.1777 17.3333 21.4888 17.3333 21.8666C17.3333 22.2443 17.2111 22.5555 16.9666 22.7999L15.7666 23.9999H16C18.2222 23.9999 20.1111 23.2166 21.6666 21.6499C23.2222 20.0832 24 18.1777 24 15.9332Z" fill="currentColor"/>
</svg>
