<svg width="32" height="32" viewBox="0 0 32 32" fill="none" xmlns="http://www.w3.org/2000/svg">
<path d="M15.5667 29.1672C15.4333 29.145 15.3 29.1116 15.1667 29.0672C12.1667 28.0672 9.77779 26.2172 8.00001 23.5172C6.22223 20.8172 5.33334 17.9116 5.33334 14.8005V8.50052C5.33334 7.94497 5.49445 7.44497 5.81668 7.00052C6.1389 6.55608 6.55557 6.23385 7.06668 6.03385L15.0667 3.03385C15.3778 2.92274 15.6889 2.86719 16 2.86719C16.3111 2.86719 16.6222 2.92274 16.9333 3.03385L24.9333 6.03385C25.4445 6.23385 25.8611 6.55608 26.1833 7.00052C26.5056 7.44497 26.6667 7.94497 26.6667 8.50052V14.8005C26.6667 17.9116 25.7778 20.8172 24 23.5172C22.2222 26.2172 19.8333 28.0672 16.8333 29.0672C16.7 29.1116 16.5667 29.145 16.4333 29.1672C16.3 29.1894 16.1556 29.2005 16 29.2005C15.8445 29.2005 15.7 29.1894 15.5667 29.1672ZM16 26.5339C18.3111 25.8005 20.2222 24.3339 21.7333 22.1339C23.2445 19.9339 24 17.4894 24 14.8005V8.50052L16 5.50052L8.00001 8.50052V14.8005C8.00001 17.4894 8.75557 19.9339 10.2667 22.1339C11.7778 24.3339 13.6889 25.8005 16 26.5339Z" fill="currentColor"/>
</svg>
