<svg width="32" height="32" viewBox="0 0 32 32" fill="none" xmlns="http://www.w3.org/2000/svg">
<path d="M11.7333 14.5994L14.6 11.6994L12.7333 9.79943L12.2 10.3328C11.9556 10.5772 11.65 10.705 11.2833 10.7161C10.9167 10.7272 10.6 10.5994 10.3333 10.3328C10.0667 10.0661 9.93333 9.74943 9.93333 9.38277C9.93333 9.0161 10.0667 8.69943 10.3333 8.43277L10.8333 7.93277L9.33333 6.43277L6.43333 9.33277L11.7333 14.5994ZM22.6667 25.5661L25.5667 22.6661L24.0667 21.1661L23.5333 21.6661C23.2667 21.9328 22.9556 22.0661 22.6 22.0661C22.2444 22.0661 21.9333 21.9328 21.6667 21.6661C21.4 21.3994 21.2667 21.0883 21.2667 20.7328C21.2667 20.3772 21.4 20.0661 21.6667 19.7994L22.1667 19.2661L20.2667 17.3994L17.4 20.2661L22.6667 25.5661ZM5.33333 27.9994C4.95556 27.9994 4.63889 27.8717 4.38333 27.6161C4.12778 27.3605 4 27.0439 4 26.6661V22.8994C4 22.7217 4.03333 22.5494 4.1 22.3828C4.16667 22.2161 4.26667 22.0661 4.4 21.9328L9.83333 16.4994L4.06667 10.7328C3.68889 10.355 3.5 9.88832 3.5 9.33277C3.5 8.77721 3.68889 8.31055 4.06667 7.93277L7.93333 4.0661C8.31111 3.68832 8.77778 3.50499 9.33333 3.5161C9.88889 3.52721 10.3556 3.72166 10.7333 4.09943L16.5333 9.8661L21.5667 4.79943C21.8333 4.53277 22.1333 4.33277 22.4667 4.19943C22.8 4.0661 23.1444 3.99943 23.5 3.99943C23.8556 3.99943 24.2 4.0661 24.5333 4.19943C24.8667 4.33277 25.1667 4.53277 25.4333 4.79943L27.2 6.59943C27.4667 6.8661 27.6667 7.1661 27.8 7.49943C27.9333 7.83277 28 8.17721 28 8.53277C28 8.88832 27.9333 9.22721 27.8 9.54943C27.6667 9.87166 27.4667 10.1661 27.2 10.4328L22.1667 15.4994L27.9333 21.2661C28.3111 21.6439 28.5 22.1105 28.5 22.6661C28.5 23.2217 28.3111 23.6883 27.9333 24.0661L24.0667 27.9328C23.6889 28.3105 23.2222 28.4994 22.6667 28.4994C22.1111 28.4994 21.6444 28.3105 21.2667 27.9328L15.5 22.1661L10.0667 27.5994C9.93333 27.7328 9.78333 27.8328 9.61667 27.8994C9.45 27.9661 9.27778 27.9994 9.1 27.9994H5.33333ZM6.66667 25.3328H8.53333L21.6 12.2994L19.7 10.3994L6.66667 23.4661V25.3328Z" fill="currentColor"/>
</svg>
