<svg width="16" height="16" viewBox="0 0 16 16" fill="none" xmlns="http://www.w3.org/2000/svg">
<path d="M2.66671 13.3334C2.30004 13.3334 1.98615 13.2029 1.72504 12.9417C1.46393 12.6806 1.33337 12.3667 1.33337 12.0001V4.00008C1.33337 3.63341 1.46393 3.31953 1.72504 3.05841C1.98615 2.7973 2.30004 2.66675 2.66671 2.66675H13.3334C13.7 2.66675 14.0139 2.7973 14.275 3.05841C14.5362 3.31953 14.6667 3.63341 14.6667 4.00008V12.0001C14.6667 12.3667 14.5362 12.6806 14.275 12.9417C14.0139 13.2029 13.7 13.3334 13.3334 13.3334H2.66671ZM13.3334 5.33341L8.35004 8.45008C8.29449 8.48342 8.23615 8.50842 8.17504 8.52508C8.11393 8.54175 8.0556 8.55008 8.00004 8.55008C7.94448 8.55008 7.88615 8.54175 7.82504 8.52508C7.76393 8.50842 7.7056 8.48342 7.65004 8.45008L2.66671 5.33341V12.0001H13.3334V5.33341ZM8.00004 7.33342L13.3334 4.00008H2.66671L8.00004 7.33342ZM2.66671 5.50008V4.51675V4.53341V4.52508V5.50008Z" fill="currentColor"/>
</svg>
