<svg width="27" height="27" viewBox="0 0 27 27" fill="none" xmlns="http://www.w3.org/2000/svg">
<path d="M4.44461 20.0001C4.12979 20.0001 3.8659 19.8936 3.65294 19.6806C3.43998 19.4677 3.3335 19.2038 3.3335 18.889C3.3335 18.5742 3.43998 18.3103 3.65294 18.0973C3.8659 17.8843 4.12979 17.7779 4.44461 17.7779H22.2224C22.5372 17.7779 22.8011 17.8843 23.0141 18.0973C23.227 18.3103 23.3335 18.5742 23.3335 18.889C23.3335 19.2038 23.227 19.4677 23.0141 19.6806C22.8011 19.8936 22.5372 20.0001 22.2224 20.0001H4.44461ZM4.44461 14.4445C4.12979 14.4445 3.8659 14.338 3.65294 14.1251C3.43998 13.9121 3.3335 13.6482 3.3335 13.3334C3.3335 13.0186 3.43998 12.7547 3.65294 12.5417C3.8659 12.3288 4.12979 12.2223 4.44461 12.2223H22.2224C22.5372 12.2223 22.8011 12.3288 23.0141 12.5417C23.227 12.7547 23.3335 13.0186 23.3335 13.3334C23.3335 13.6482 23.227 13.9121 23.0141 14.1251C22.8011 14.338 22.5372 14.4445 22.2224 14.4445H4.44461ZM4.44461 8.88897C4.12979 8.88897 3.8659 8.78249 3.65294 8.56953C3.43998 8.35656 3.3335 8.09267 3.3335 7.77786C3.3335 7.46304 3.43998 7.19916 3.65294 6.98619C3.8659 6.77323 4.12979 6.66675 4.44461 6.66675H22.2224C22.5372 6.66675 22.8011 6.77323 23.0141 6.98619C23.227 7.19916 23.3335 7.46304 23.3335 7.77786C23.3335 8.09267 23.227 8.35656 23.0141 8.56953C22.8011 8.78249 22.5372 8.88897 22.2224 8.88897H4.44461Z" fill="currentColor"/>
</svg>
