<svg width="32" height="32" viewBox="0 0 32 32" fill="none" xmlns="http://www.w3.org/2000/svg">
<path d="M20 25.3333V24H17.3334C16.6 24 15.9722 23.7389 15.45 23.2167C14.9278 22.6944 14.6667 22.0667 14.6667 21.3333V10.6667H12V12C12 12.7333 11.7389 13.3611 11.2167 13.8833C10.6945 14.4056 10.0667 14.6667 9.33335 14.6667H5.33335C4.60002 14.6667 3.97224 14.4056 3.45002 13.8833C2.9278 13.3611 2.66669 12.7333 2.66669 12V6.66667C2.66669 5.93333 2.9278 5.30556 3.45002 4.78333C3.97224 4.26111 4.60002 4 5.33335 4H9.33335C10.0667 4 10.6945 4.26111 11.2167 4.78333C11.7389 5.30556 12 5.93333 12 6.66667V8H20V6.66667C20 5.93333 20.2611 5.30556 20.7834 4.78333C21.3056 4.26111 21.9334 4 22.6667 4H26.6667C27.4 4 28.0278 4.26111 28.55 4.78333C29.0722 5.30556 29.3334 5.93333 29.3334 6.66667V12C29.3334 12.7333 29.0722 13.3611 28.55 13.8833C28.0278 14.4056 27.4 14.6667 26.6667 14.6667H22.6667C21.9334 14.6667 21.3056 14.4056 20.7834 13.8833C20.2611 13.3611 20 12.7333 20 12V10.6667H17.3334V21.3333H20V20C20 19.2667 20.2611 18.6389 20.7834 18.1167C21.3056 17.5944 21.9334 17.3333 22.6667 17.3333H26.6667C27.4 17.3333 28.0278 17.5944 28.55 18.1167C29.0722 18.6389 29.3334 19.2667 29.3334 20V25.3333C29.3334 26.0667 29.0722 26.6944 28.55 27.2167C28.0278 27.7389 27.4 28 26.6667 28H22.6667C21.9334 28 21.3056 27.7389 20.7834 27.2167C20.2611 26.6944 20 26.0667 20 25.3333ZM22.6667 12H26.6667V6.66667H22.6667V12ZM22.6667 25.3333H26.6667V20H22.6667V25.3333ZM5.33335 12H9.33335V6.66667H5.33335V12Z" fill="currentColor"/>
</svg>
