<svg width="32" height="32" viewBox="0 0 32 32" fill="none" xmlns="http://www.w3.org/2000/svg">
<path d="M16 28C15.6222 28 15.3055 27.8722 15.05 27.6167C14.7944 27.3611 14.6667 27.0444 14.6667 26.6667C14.6667 26.2889 14.7944 25.9722 15.05 25.7167C15.3055 25.4611 15.6222 25.3333 16 25.3333H25.3333V15.8667C25.3333 13.2667 24.4278 11.0611 22.6167 9.25C20.8055 7.43889 18.6 6.53333 16 6.53333C13.4 6.53333 11.1944 7.43889 9.38332 9.25C7.57221 11.0611 6.66666 13.2667 6.66666 15.8667V22.6667C6.66666 23.0444 6.53888 23.3611 6.28332 23.6167C6.02777 23.8722 5.7111 24 5.33332 24C4.59999 24 3.97221 23.7389 3.44999 23.2167C2.92777 22.6944 2.66666 22.0667 2.66666 21.3333V18.6667C2.66666 18.2 2.78332 17.7611 3.01666 17.35C3.24999 16.9389 3.57777 16.6111 3.99999 16.3667L4.09999 14.6C4.27777 13.0889 4.71666 11.6889 5.41666 10.4C6.11666 9.11111 6.99443 7.98889 8.04999 7.03333C9.10555 6.07778 10.3167 5.33333 11.6833 4.8C13.05 4.26667 14.4889 4 16 4C17.5111 4 18.9444 4.26667 20.3 4.8C21.6555 5.33333 22.8667 6.07222 23.9333 7.01667C25 7.96111 25.8778 9.07778 26.5667 10.3667C27.2555 11.6556 27.7 13.0556 27.9 14.5667L28 16.3C28.4222 16.5 28.75 16.8 28.9833 17.2C29.2167 17.6 29.3333 18.0222 29.3333 18.4667V21.5333C29.3333 21.9778 29.2167 22.4 28.9833 22.8C28.75 23.2 28.4222 23.5 28 23.7V25.3333C28 26.0667 27.7389 26.6944 27.2167 27.2167C26.6944 27.7389 26.0667 28 25.3333 28H16ZM11.05 18.2833C10.7944 18.0278 10.6667 17.7111 10.6667 17.3333C10.6667 16.9556 10.7944 16.6389 11.05 16.3833C11.3055 16.1278 11.6222 16 12 16C12.3778 16 12.6944 16.1278 12.95 16.3833C13.2055 16.6389 13.3333 16.9556 13.3333 17.3333C13.3333 17.7111 13.2055 18.0278 12.95 18.2833C12.6944 18.5389 12.3778 18.6667 12 18.6667C11.6222 18.6667 11.3055 18.5389 11.05 18.2833ZM19.05 18.2833C18.7944 18.0278 18.6667 17.7111 18.6667 17.3333C18.6667 16.9556 18.7944 16.6389 19.05 16.3833C19.3055 16.1278 19.6222 16 20 16C20.3778 16 20.6944 16.1278 20.95 16.3833C21.2055 16.6389 21.3333 16.9556 21.3333 17.3333C21.3333 17.7111 21.2055 18.0278 20.95 18.2833C20.6944 18.5389 20.3778 18.6667 20 18.6667C19.6222 18.6667 19.3055 18.5389 19.05 18.2833ZM8.03332 16.6C7.87777 14.2444 8.58888 12.2222 10.1667 10.5333C11.7444 8.84444 13.7111 8 16.0667 8C18.0444 8 19.7833 8.62778 21.2833 9.88333C22.7833 11.1389 23.6889 12.7444 24 14.7C21.9778 14.6778 20.1167 14.1333 18.4167 13.0667C16.7167 12 15.4111 10.5556 14.5 8.73333C14.1444 10.5111 13.3944 12.0944 12.25 13.4833C11.1055 14.8722 9.69999 15.9111 8.03332 16.6Z" fill="currentColor"/>
</svg>
