<svg width="32" height="32" viewBox="0 0 32 32" fill="none" xmlns="http://www.w3.org/2000/svg">
<path d="M16 29.3332C14.1555 29.3332 12.4222 28.9832 10.8 28.2832C9.17774 27.5832 7.76663 26.6332 6.56663 25.4332C5.36663 24.2332 4.41663 22.8221 3.71663 21.1998C3.01663 19.5776 2.66663 17.8443 2.66663 15.9998C2.66663 14.1554 3.01663 12.4221 3.71663 10.7998C4.41663 9.17761 5.36663 7.7665 6.56663 6.5665C7.76663 5.3665 9.17774 4.4165 10.8 3.7165C12.4222 3.0165 14.1555 2.6665 16 2.6665C17.8666 2.6665 19.6055 3.0165 21.2166 3.7165C22.8277 4.4165 24.2333 5.3665 25.4333 6.5665C26.6333 7.7665 27.5833 9.17206 28.2833 10.7832C28.9833 12.3943 29.3333 14.1332 29.3333 15.9998C29.3333 16.2221 29.3277 16.4387 29.3166 16.6498C29.3055 16.8609 29.2888 17.0665 29.2666 17.2665C29.2222 17.6443 29.0611 17.9332 28.7833 18.1332C28.5055 18.3332 28.1777 18.3998 27.8 18.3332C27.4222 18.2665 27.1222 18.0776 26.9 17.7665C26.6777 17.4554 26.5888 17.1109 26.6333 16.7332C26.6333 16.6221 26.6388 16.4998 26.65 16.3665C26.6611 16.2332 26.6666 16.1109 26.6666 15.9998C26.6666 14.5109 26.3944 13.1221 25.85 11.8332C25.3055 10.5443 24.5444 9.41095 23.5666 8.43317C22.5888 7.45539 21.4555 6.69428 20.1666 6.14984C18.8777 5.60539 17.4888 5.33317 16 5.33317C13.0222 5.33317 10.5 6.3665 8.43329 8.43317C6.36663 10.4998 5.33329 13.0221 5.33329 15.9998C5.33329 18.9776 6.36663 21.4998 8.43329 23.5665C10.5 25.6332 13.0222 26.6665 16 26.6665C17 26.6665 17.9611 26.5387 18.8833 26.2832C19.8055 26.0276 20.6777 25.6443 21.5 25.1332C21.8111 24.9554 22.15 24.8887 22.5166 24.9332C22.8833 24.9776 23.1666 25.1554 23.3666 25.4665C23.5888 25.7776 23.6611 26.1165 23.5833 26.4832C23.5055 26.8498 23.3111 27.1332 23 27.3332C21.9555 27.9776 20.85 28.4721 19.6833 28.8165C18.5166 29.1609 17.2888 29.3332 16 29.3332ZM24.4833 23.5165C24.1611 23.1943 24 22.7998 24 22.3332C24 21.8665 24.1611 21.4721 24.4833 21.1498C24.8055 20.8276 25.2 20.6665 25.6666 20.6665C26.1333 20.6665 26.5277 20.8276 26.85 21.1498C27.1722 21.4721 27.3333 21.8665 27.3333 22.3332C27.3333 22.7998 27.1722 23.1943 26.85 23.5165C26.5277 23.8387 26.1333 23.9998 25.6666 23.9998C25.2 23.9998 24.8055 23.8387 24.4833 23.5165ZM17.3333 15.4665L21.3333 19.4665C21.5777 19.7109 21.7 20.0221 21.7 20.3998C21.7 20.7776 21.5777 21.0887 21.3333 21.3332C21.0888 21.5776 20.7777 21.6998 20.4 21.6998C20.0222 21.6998 19.7111 21.5776 19.4666 21.3332L15.0666 16.9332C14.9333 16.7998 14.8333 16.6498 14.7666 16.4832C14.7 16.3165 14.6666 16.1443 14.6666 15.9665V10.6665C14.6666 10.2887 14.7944 9.97206 15.05 9.7165C15.3055 9.46095 15.6222 9.33317 16 9.33317C16.3777 9.33317 16.6944 9.46095 16.95 9.7165C17.2055 9.97206 17.3333 10.2887 17.3333 10.6665V15.4665Z" fill="currentColor"/>
</svg>
