<svg width="32" height="32" viewBox="0 0 32 32" fill="none" xmlns="http://www.w3.org/2000/svg">
<path d="M13.1667 17.4998C12.3889 16.7221 12.0001 15.7776 12.0001 14.6665V6.6665C12.0001 5.55539 12.3889 4.61095 13.1667 3.83317C13.9445 3.05539 14.8889 2.6665 16.0001 2.6665C17.1112 2.6665 18.0556 3.05539 18.8334 3.83317C19.6112 4.61095 20.0001 5.55539 20.0001 6.6665V14.6665C20.0001 15.7776 19.6112 16.7221 18.8334 17.4998C18.0556 18.2776 17.1112 18.6665 16.0001 18.6665C14.8889 18.6665 13.9445 18.2776 13.1667 17.4998ZM14.6667 26.6665V23.8998C12.6223 23.6109 10.8723 22.7443 9.41673 21.2998C7.96117 19.8554 7.07784 18.0998 6.76673 16.0332C6.72228 15.6554 6.82228 15.3332 7.06673 15.0665C7.31117 14.7998 7.62228 14.6665 8.00006 14.6665C8.37784 14.6665 8.6945 14.7943 8.95006 15.0498C9.20562 15.3054 9.37784 15.6221 9.46673 15.9998C9.77784 17.5554 10.5501 18.8332 11.7834 19.8332C13.0167 20.8332 14.4223 21.3332 16.0001 21.3332C17.6001 21.3332 19.0112 20.8276 20.2334 19.8165C21.4556 18.8054 22.2223 17.5332 22.5334 15.9998C22.6223 15.6221 22.7945 15.3054 23.0501 15.0498C23.3056 14.7943 23.6223 14.6665 24.0001 14.6665C24.3778 14.6665 24.6889 14.7998 24.9334 15.0665C25.1778 15.3332 25.2778 15.6554 25.2334 16.0332C24.9223 18.0554 24.0445 19.7998 22.6001 21.2665C21.1556 22.7332 19.4001 23.6109 17.3334 23.8998V26.6665C17.3334 27.0443 17.2056 27.3609 16.9501 27.6165C16.6945 27.8721 16.3778 27.9998 16.0001 27.9998C15.6223 27.9998 15.3056 27.8721 15.0501 27.6165C14.7945 27.3609 14.6667 27.0443 14.6667 26.6665ZM16.9501 15.6165C17.2056 15.3609 17.3334 15.0443 17.3334 14.6665V6.6665C17.3334 6.28873 17.2056 5.97206 16.9501 5.7165C16.6945 5.46095 16.3778 5.33317 16.0001 5.33317C15.6223 5.33317 15.3056 5.46095 15.0501 5.7165C14.7945 5.97206 14.6667 6.28873 14.6667 6.6665V14.6665C14.6667 15.0443 14.7945 15.3609 15.0501 15.6165C15.3056 15.8721 15.6223 15.9998 16.0001 15.9998C16.3778 15.9998 16.6945 15.8721 16.9501 15.6165Z" fill="currentColor"/>
</svg>
