<svg width="32" height="32" viewBox="0 0 32 32" fill="none" xmlns="http://www.w3.org/2000/svg">
<path d="M9.33329 18.6668V26.6668C9.33329 27.0446 9.20551 27.3613 8.94996 27.6168C8.6944 27.8724 8.37774 28.0002 7.99996 28.0002C7.62218 28.0002 7.30551 27.8724 7.04996 27.6168C6.7944 27.3613 6.66663 27.0446 6.66663 26.6668V6.66683C6.66663 6.28905 6.7944 5.97238 7.04996 5.71683C7.30551 5.46127 7.62218 5.3335 7.99996 5.3335H17.5666C17.8777 5.3335 18.1555 5.4335 18.4 5.6335C18.6444 5.8335 18.8 6.08905 18.8666 6.40016L19.2 8.00016H25.3333C25.7111 8.00016 26.0277 8.12794 26.2833 8.3835C26.5388 8.63905 26.6666 8.95572 26.6666 9.3335V20.0002C26.6666 20.3779 26.5388 20.6946 26.2833 20.9502C26.0277 21.2057 25.7111 21.3335 25.3333 21.3335H18.4333C18.1222 21.3335 17.8444 21.2335 17.6 21.0335C17.3555 20.8335 17.2 20.5779 17.1333 20.2668L16.8 18.6668H9.33329ZM19.5333 18.6668H24V10.6668H18.1C17.7888 10.6668 17.5111 10.5668 17.2666 10.3668C17.0222 10.1668 16.8666 9.91127 16.8 9.60016L16.4666 8.00016H9.33329V16.0002H17.9C18.2111 16.0002 18.4888 16.1002 18.7333 16.3002C18.9777 16.5002 19.1333 16.7557 19.2 17.0668L19.5333 18.6668Z" fill="currentColor"/>
</svg>
