<svg width="32" height="32" viewBox="0 0 32 32" fill="none" xmlns="http://www.w3.org/2000/svg">
<path d="M16 25.7998C18.7111 23.3109 20.7222 21.0498 22.0333 19.0165C23.3444 16.9832 24 15.1776 24 13.5998C24 11.1776 23.2278 9.19428 21.6833 7.64984C20.1389 6.10539 18.2444 5.33317 16 5.33317C13.7555 5.33317 11.8611 6.10539 10.3166 7.64984C8.7722 9.19428 7.99998 11.1776 7.99998 13.5998C7.99998 15.1776 8.65554 16.9832 9.96665 19.0165C11.2778 21.0498 13.2889 23.3109 16 25.7998ZM15.0666 28.2665C14.7555 28.1554 14.4778 27.9887 14.2333 27.7665C12.7889 26.4332 11.5111 25.1332 10.4 23.8665C9.28887 22.5998 8.36109 21.3721 7.61665 20.1832C6.8722 18.9943 6.30554 17.8498 5.91665 16.7498C5.52776 15.6498 5.33331 14.5998 5.33331 13.5998C5.33331 10.2665 6.40554 7.61095 8.54998 5.63317C10.6944 3.65539 13.1778 2.6665 16 2.6665C18.8222 2.6665 21.3055 3.65539 23.45 5.63317C25.5944 7.61095 26.6666 10.2665 26.6666 13.5998C26.6666 14.5998 26.4722 15.6498 26.0833 16.7498C25.6944 17.8498 25.1278 18.9943 24.3833 20.1832C23.6389 21.3721 22.7111 22.5998 21.6 23.8665C20.4889 25.1332 19.2111 26.4332 17.7666 27.7665C17.5222 27.9887 17.2444 28.1554 16.9333 28.2665C16.6222 28.3776 16.3111 28.4332 16 28.4332C15.6889 28.4332 15.3778 28.3776 15.0666 28.2665ZM17.8833 15.2165C18.4055 14.6943 18.6666 14.0665 18.6666 13.3332C18.6666 12.5998 18.4055 11.9721 17.8833 11.4498C17.3611 10.9276 16.7333 10.6665 16 10.6665C15.2666 10.6665 14.6389 10.9276 14.1166 11.4498C13.5944 11.9721 13.3333 12.5998 13.3333 13.3332C13.3333 14.0665 13.5944 14.6943 14.1166 15.2165C14.6389 15.7387 15.2666 15.9998 16 15.9998C16.7333 15.9998 17.3611 15.7387 17.8833 15.2165Z" fill="currentColor"/>
</svg>
