<svg width="32" height="32" viewBox="0 0 32 32" fill="none" xmlns="http://www.w3.org/2000/svg">
<path d="M16 9.3335C14.0444 9.3335 12.1389 9.63905 10.2833 10.2502C8.42775 10.8613 6.72219 11.7668 5.16663 12.9668C4.72219 13.3224 4.21663 13.4946 3.64997 13.4835C3.0833 13.4724 2.59997 13.2668 2.19997 12.8668C1.82219 12.4891 1.6333 12.0224 1.6333 11.4668C1.6333 10.9113 1.85552 10.4668 2.29997 10.1335C4.25552 8.57794 6.40552 7.38905 8.74997 6.56683C11.0944 5.74461 13.5111 5.3335 16 5.3335C18.5111 5.3335 20.9333 5.74461 23.2666 6.56683C25.6 7.38905 27.7444 8.57794 29.7 10.1335C30.1444 10.4668 30.3666 10.9113 30.3666 11.4668C30.3666 12.0224 30.1777 12.4891 29.8 12.8668C29.4 13.2668 28.9166 13.4724 28.35 13.4835C27.7833 13.4946 27.2777 13.3224 26.8333 12.9668C25.2777 11.7668 23.5777 10.8613 21.7333 10.2502C19.8889 9.63905 17.9777 9.3335 16 9.3335ZM16 17.3335C15.0889 17.3335 14.2055 17.4502 13.35 17.6835C12.4944 17.9168 11.6777 18.2668 10.9 18.7335C10.4111 19.0446 9.8833 19.1891 9.31663 19.1668C8.74997 19.1446 8.26663 18.9335 7.86663 18.5335C7.48886 18.1557 7.30552 17.6946 7.31663 17.1502C7.32775 16.6057 7.55552 16.1779 7.99997 15.8668C9.17775 15.0446 10.4444 14.4168 11.8 13.9835C13.1555 13.5502 14.5555 13.3335 16 13.3335C17.4444 13.3335 18.8444 13.5502 20.2 13.9835C21.5555 14.4168 22.8222 15.0446 24 15.8668C24.4444 16.1779 24.6722 16.6057 24.6833 17.1502C24.6944 17.6946 24.5111 18.1557 24.1333 18.5335C23.7333 18.9335 23.25 19.1446 22.6833 19.1668C22.1166 19.1891 21.5889 19.0446 21.1 18.7335C20.3222 18.2668 19.5055 17.9168 18.65 17.6835C17.7944 17.4502 16.9111 17.3335 16 17.3335ZM14.1166 25.8835C13.5944 25.3613 13.3333 24.7335 13.3333 24.0002C13.3333 23.2668 13.5944 22.6391 14.1166 22.1168C14.6389 21.5946 15.2666 21.3335 16 21.3335C16.7333 21.3335 17.3611 21.5946 17.8833 22.1168C18.4055 22.6391 18.6666 23.2668 18.6666 24.0002C18.6666 24.7335 18.4055 25.3613 17.8833 25.8835C17.3611 26.4057 16.7333 26.6668 16 26.6668C15.2666 26.6668 14.6389 26.4057 14.1166 25.8835Z" fill="currentColor"/>
</svg>
