<svg width="32" height="32" viewBox="0 0 32 32" fill="none" xmlns="http://www.w3.org/2000/svg">
<path d="M14.6 16.933L12.6667 15.033C12.4222 14.7886 12.1167 14.6663 11.75 14.6663C11.3833 14.6663 11.0667 14.7997 10.8 15.0663C10.5556 15.3108 10.4333 15.6219 10.4333 15.9997C10.4333 16.3774 10.5556 16.6886 10.8 16.933L13.6667 19.7997C13.9333 20.0663 14.2444 20.1997 14.6 20.1997C14.9556 20.1997 15.2667 20.0663 15.5333 19.7997L21.2 14.133C21.4667 13.8663 21.5944 13.5552 21.5833 13.1997C21.5722 12.8441 21.4444 12.533 21.2 12.2663C20.9333 11.9997 20.6167 11.8608 20.25 11.8497C19.8833 11.8386 19.5667 11.9663 19.3 12.233L14.6 16.933ZM10.8667 28.9997L8.93333 25.733L5.26666 24.933C4.93333 24.8663 4.66666 24.6941 4.46666 24.4163C4.26666 24.1386 4.18888 23.833 4.23333 23.4997L4.6 19.733L2.1 16.8663C1.87777 16.6219 1.76666 16.333 1.76666 15.9997C1.76666 15.6663 1.87777 15.3774 2.1 15.133L4.6 12.2663L4.23333 8.49967C4.18888 8.16634 4.26666 7.86078 4.46666 7.583C4.66666 7.30523 4.93333 7.133 5.26666 7.06634L8.93333 6.26634L10.8667 2.99967C11.0444 2.71078 11.2889 2.51634 11.6 2.41634C11.9111 2.31634 12.2222 2.333 12.5333 2.46634L16 3.933L19.4667 2.46634C19.7778 2.333 20.0889 2.31634 20.4 2.41634C20.7111 2.51634 20.9556 2.71078 21.1333 2.99967L23.0667 6.26634L26.7333 7.06634C27.0667 7.133 27.3333 7.30523 27.5333 7.583C27.7333 7.86078 27.8111 8.16634 27.7667 8.49967L27.4 12.2663L29.9 15.133C30.1222 15.3774 30.2333 15.6663 30.2333 15.9997C30.2333 16.333 30.1222 16.6219 29.9 16.8663L27.4 19.733L27.7667 23.4997C27.8111 23.833 27.7333 24.1386 27.5333 24.4163C27.3333 24.6941 27.0667 24.8663 26.7333 24.933L23.0667 25.733L21.1333 28.9997C20.9556 29.2886 20.7111 29.483 20.4 29.583C20.0889 29.683 19.7778 29.6663 19.4667 29.533L16 28.0663L12.5333 29.533C12.2222 29.6663 11.9111 29.683 11.6 29.583C11.2889 29.483 11.0444 29.2886 10.8667 28.9997ZM12.6 26.5997L16 25.133L19.4667 26.5997L21.3333 23.3997L25 22.533L24.6667 18.7997L27.1333 15.9997L24.6667 13.133L25 9.39967L21.3333 8.59967L19.4 5.39967L16 6.86634L12.5333 5.39967L10.6667 8.59967L7 9.39967L7.33333 13.133L4.86666 15.9997L7.33333 18.7997L7 22.5997L10.6667 23.3997L12.6 26.5997Z" fill="currentColor"/>
</svg>
