<svg width="0" height="0" class="hidden">
  <symbol fill="none" xmlns="http://www.w3.org/2000/svg" viewBox="0 0 32 32" id="ic_advantage1">
    <path d="M11.7333 14.5994L14.6 11.6994L12.7333 9.79943L12.2 10.3328C11.9556 10.5772 11.65 10.705 11.2833 10.7161C10.9167 10.7272 10.6 10.5994 10.3333 10.3328C10.0667 10.0661 9.93333 9.74943 9.93333 9.38277C9.93333 9.0161 10.0667 8.69943 10.3333 8.43277L10.8333 7.93277L9.33333 6.43277L6.43333 9.33277L11.7333 14.5994ZM22.6667 25.5661L25.5667 22.6661L24.0667 21.1661L23.5333 21.6661C23.2667 21.9328 22.9556 22.0661 22.6 22.0661C22.2444 22.0661 21.9333 21.9328 21.6667 21.6661C21.4 21.3994 21.2667 21.0883 21.2667 20.7328C21.2667 20.3772 21.4 20.0661 21.6667 19.7994L22.1667 19.2661L20.2667 17.3994L17.4 20.2661L22.6667 25.5661ZM5.33333 27.9994C4.95556 27.9994 4.63889 27.8717 4.38333 27.6161C4.12778 27.3605 4 27.0439 4 26.6661V22.8994C4 22.7217 4.03333 22.5494 4.1 22.3828C4.16667 22.2161 4.26667 22.0661 4.4 21.9328L9.83333 16.4994L4.06667 10.7328C3.68889 10.355 3.5 9.88832 3.5 9.33277C3.5 8.77721 3.68889 8.31055 4.06667 7.93277L7.93333 4.0661C8.31111 3.68832 8.77778 3.50499 9.33333 3.5161C9.88889 3.52721 10.3556 3.72166 10.7333 4.09943L16.5333 9.8661L21.5667 4.79943C21.8333 4.53277 22.1333 4.33277 22.4667 4.19943C22.8 4.0661 23.1444 3.99943 23.5 3.99943C23.8556 3.99943 24.2 4.0661 24.5333 4.19943C24.8667 4.33277 25.1667 4.53277 25.4333 4.79943L27.2 6.59943C27.4667 6.8661 27.6667 7.1661 27.8 7.49943C27.9333 7.83277 28 8.17721 28 8.53277C28 8.88832 27.9333 9.22721 27.8 9.54943C27.6667 9.87166 27.4667 10.1661 27.2 10.4328L22.1667 15.4994L27.9333 21.2661C28.3111 21.6439 28.5 22.1105 28.5 22.6661C28.5 23.2217 28.3111 23.6883 27.9333 24.0661L24.0667 27.9328C23.6889 28.3105 23.2222 28.4994 22.6667 28.4994C22.1111 28.4994 21.6444 28.3105 21.2667 27.9328L15.5 22.1661L10.0667 27.5994C9.93333 27.7328 9.78333 27.8328 9.61667 27.8994C9.45 27.9661 9.27778 27.9994 9.1 27.9994H5.33333ZM6.66667 25.3328H8.53333L21.6 12.2994L19.7 10.3994L6.66667 23.4661V25.3328Z" fill="currentColor"></path>
  </symbol>
  <symbol fill="none" xmlns="http://www.w3.org/2000/svg" viewBox="0 0 32 32" id="ic_advantage2">
    <path d="M7.99998 16.0666C7.99998 16.4221 8.0222 16.7721 8.06665 17.1166C8.11109 17.461 8.18887 17.7999 8.29998 18.1332C8.41109 18.511 8.39998 18.8721 8.26665 19.2166C8.13331 19.561 7.89998 19.811 7.56665 19.9666C7.21109 20.1443 6.86109 20.161 6.51665 20.0166C6.1722 19.8721 5.94442 19.611 5.83331 19.2332C5.65554 18.7221 5.52776 18.1999 5.44998 17.6666C5.3722 17.1332 5.33331 16.5999 5.33331 16.0666C5.33331 13.0888 6.36665 10.5555 8.43331 8.46657C10.5 6.37768 13.0222 5.33324 16 5.33324H16.2333L15.0333 4.13324C14.7889 3.88879 14.6666 3.57768 14.6666 3.1999C14.6666 2.82212 14.7889 2.51101 15.0333 2.26657C15.2778 2.02212 15.5889 1.8999 15.9666 1.8999C16.3444 1.8999 16.6555 2.02212 16.9 2.26657L20.3666 5.73324C20.6333 5.9999 20.7666 6.31101 20.7666 6.66657C20.7666 7.02212 20.6333 7.33324 20.3666 7.5999L16.9 11.0666C16.6555 11.311 16.3444 11.4332 15.9666 11.4332C15.5889 11.4332 15.2778 11.311 15.0333 11.0666C14.7889 10.8221 14.6666 10.511 14.6666 10.1332C14.6666 9.75546 14.7889 9.44435 15.0333 9.1999L16.2333 7.9999H16C13.7778 7.9999 11.8889 8.78324 10.3333 10.3499C8.77776 11.9166 7.99998 13.8221 7.99998 16.0666ZM24 15.9332C24 15.5777 23.9778 15.2277 23.9333 14.8832C23.8889 14.5388 23.8111 14.1999 23.7 13.8666C23.5889 13.4888 23.6 13.1277 23.7333 12.7832C23.8666 12.4388 24.1 12.1888 24.4333 12.0332C24.7889 11.8555 25.1389 11.8388 25.4833 11.9832C25.8278 12.1277 26.0555 12.3888 26.1666 12.7666C26.3444 13.2777 26.4722 13.7999 26.55 14.3332C26.6278 14.8666 26.6666 15.3999 26.6666 15.9332C26.6666 18.911 25.6333 21.4443 23.5666 23.5332C21.5 25.6221 18.9778 26.6666 16 26.6666H15.7666L16.9666 27.8666C17.2111 28.111 17.3333 28.4221 17.3333 28.7999C17.3333 29.1777 17.2111 29.4888 16.9666 29.7332C16.7222 29.9777 16.4111 30.0999 16.0333 30.0999C15.6555 30.0999 15.3444 29.9777 15.1 29.7332L11.6333 26.2666C11.3666 25.9999 11.2333 25.6888 11.2333 25.3332C11.2333 24.9777 11.3666 24.6666 11.6333 24.3999L15.1 20.9332C15.3444 20.6888 15.6555 20.5666 16.0333 20.5666C16.4111 20.5666 16.7222 20.6888 16.9666 20.9332C17.2111 21.1777 17.3333 21.4888 17.3333 21.8666C17.3333 22.2443 17.2111 22.5555 16.9666 22.7999L15.7666 23.9999H16C18.2222 23.9999 20.1111 23.2166 21.6666 21.6499C23.2222 20.0832 24 18.1777 24 15.9332Z" fill="currentColor"></path>
  </symbol>
  <symbol fill="none" xmlns="http://www.w3.org/2000/svg" viewBox="0 0 32 32" id="ic_advantage3">
    <path d="M15.5667 29.1672C15.4333 29.145 15.3 29.1116 15.1667 29.0672C12.1667 28.0672 9.77779 26.2172 8.00001 23.5172C6.22223 20.8172 5.33334 17.9116 5.33334 14.8005V8.50052C5.33334 7.94497 5.49445 7.44497 5.81668 7.00052C6.1389 6.55608 6.55557 6.23385 7.06668 6.03385L15.0667 3.03385C15.3778 2.92274 15.6889 2.86719 16 2.86719C16.3111 2.86719 16.6222 2.92274 16.9333 3.03385L24.9333 6.03385C25.4445 6.23385 25.8611 6.55608 26.1833 7.00052C26.5056 7.44497 26.6667 7.94497 26.6667 8.50052V14.8005C26.6667 17.9116 25.7778 20.8172 24 23.5172C22.2222 26.2172 19.8333 28.0672 16.8333 29.0672C16.7 29.1116 16.5667 29.145 16.4333 29.1672C16.3 29.1894 16.1556 29.2005 16 29.2005C15.8445 29.2005 15.7 29.1894 15.5667 29.1672ZM16 26.5339C18.3111 25.8005 20.2222 24.3339 21.7333 22.1339C23.2445 19.9339 24 17.4894 24 14.8005V8.50052L16 5.50052L8.00001 8.50052V14.8005C8.00001 17.4894 8.75557 19.9339 10.2667 22.1339C11.7778 24.3339 13.6889 25.8005 16 26.5339Z" fill="currentColor"></path>
  </symbol>
  <symbol fill="none" xmlns="http://www.w3.org/2000/svg" viewBox="0 0 32 32" id="ic_advantage4">
    <path d="M6.66663 21.3337V14.667C6.66663 14.2892 6.7944 13.9725 7.04996 13.717C7.30552 13.4614 7.62218 13.3337 7.99996 13.3337C8.37774 13.3337 8.6944 13.4614 8.94996 13.717C9.20552 13.9725 9.33329 14.2892 9.33329 14.667V21.3337C9.33329 21.7114 9.20552 22.0281 8.94996 22.2837C8.6944 22.5392 8.37774 22.667 7.99996 22.667C7.62218 22.667 7.30552 22.5392 7.04996 22.2837C6.7944 22.0281 6.66663 21.7114 6.66663 21.3337ZM14.6666 21.3337V14.667C14.6666 14.2892 14.7944 13.9725 15.05 13.717C15.3055 13.4614 15.6222 13.3337 16 13.3337C16.3777 13.3337 16.6944 13.4614 16.95 13.717C17.2055 13.9725 17.3333 14.2892 17.3333 14.667V21.3337C17.3333 21.7114 17.2055 22.0281 16.95 22.2837C16.6944 22.5392 16.3777 22.667 16 22.667C15.6222 22.667 15.3055 22.5392 15.05 22.2837C14.7944 22.0281 14.6666 21.7114 14.6666 21.3337ZM28 10.667H3.86663C3.53329 10.667 3.24996 10.5503 3.01663 10.317C2.78329 10.0837 2.66663 9.80033 2.66663 9.46699V8.73366C2.66663 8.48921 2.72774 8.2781 2.84996 8.10033C2.97218 7.92255 3.13329 7.7781 3.33329 7.66699L14.8 1.93366C15.1777 1.75588 15.5777 1.66699 16 1.66699C16.4222 1.66699 16.8222 1.75588 17.2 1.93366L28.6 7.63366C28.8444 7.74477 29.0277 7.91144 29.15 8.13366C29.2722 8.35588 29.3333 8.58921 29.3333 8.83366V9.33366C29.3333 9.71144 29.2055 10.0281 28.95 10.2837C28.6944 10.5392 28.3777 10.667 28 10.667ZM8.63329 8.00033H23.3666L16 4.33366L8.63329 8.00033ZM3.99996 28.0003C3.62218 28.0003 3.30551 27.8725 3.04996 27.617C2.7944 27.3614 2.66663 27.0448 2.66663 26.667C2.66663 26.2892 2.7944 25.9725 3.04996 25.717C3.30551 25.4614 3.62218 25.3337 3.99996 25.3337H17.4C17.7777 25.3337 18.0944 25.4614 18.35 25.717C18.6055 25.9725 18.7333 26.2892 18.7333 26.667C18.7333 27.0448 18.6055 27.3614 18.35 27.617C18.0944 27.8725 17.7777 28.0003 17.4 28.0003H3.99996ZM23.05 16.617C22.7944 16.3614 22.6666 16.0448 22.6666 15.667V14.667C22.6666 14.2892 22.7944 13.9725 23.05 13.717C23.3055 13.4614 23.6222 13.3337 24 13.3337C24.3777 13.3337 24.6944 13.4614 24.95 13.717C25.2055 13.9725 25.3333 14.2892 25.3333 14.667V15.667C25.3333 16.0448 25.2055 16.3614 24.95 16.617C24.6944 16.8725 24.3777 17.0003 24 17.0003C23.6222 17.0003 23.3055 16.8725 23.05 16.617ZM21.3333 24.7337V22.167C21.3333 21.9225 21.3944 21.6892 21.5166 21.467C21.6388 21.2448 21.8222 21.0781 22.0666 20.967L26.0666 18.967C26.2444 18.8559 26.4444 18.8003 26.6666 18.8003C26.8888 18.8003 27.0889 18.8559 27.2666 18.967L31.2666 20.967C31.5111 21.0781 31.6944 21.2448 31.8166 21.467C31.9389 21.6892 32 21.9225 32 22.167V24.7337C32 26.4003 31.5666 27.8392 30.7 29.0503C29.8333 30.2614 28.6555 31.1781 27.1666 31.8003C27.1222 31.8225 26.9555 31.8559 26.6666 31.9003C26.6222 31.9003 26.4555 31.867 26.1666 31.8003C24.6777 31.1781 23.5 30.2614 22.6333 29.0503C21.7666 27.8392 21.3333 26.4003 21.3333 24.7337ZM25.7 25.167L25.1 24.567C24.9 24.367 24.6666 24.2725 24.4 24.2837C24.1333 24.2948 23.9 24.4003 23.7 24.6003C23.5 24.8003 23.4 25.0337 23.4 25.3003C23.4 25.567 23.5 25.8003 23.7 26.0003L24.7666 27.067C25.0333 27.3337 25.3444 27.467 25.7 27.467C26.0555 27.467 26.3666 27.3337 26.6333 27.067L29.6333 24.1003C29.8333 23.9003 29.9333 23.667 29.9333 23.4003C29.9333 23.1337 29.8333 22.9003 29.6333 22.7003C29.4333 22.5003 29.2 22.4059 28.9333 22.417C28.6666 22.4281 28.4333 22.5225 28.2333 22.7003L25.7 25.167Z" fill="currentColor"></path>
  </symbol>
  <symbol fill="none" xmlns="http://www.w3.org/2000/svg" viewBox="0 0 20 20" id="ic_arrs">
    <path d="M6.66665 5.8335L3.33331 10.0002L6.66665 14.1668M13.3333 5.8335L16.6666 10.0002L13.3333 14.1668" stroke="currentColor" stroke-width="2.08333" stroke-linecap="round" stroke-linejoin="round"></path>
  </symbol>
  <symbol fill="none" xmlns="http://www.w3.org/2000/svg" viewBox="0 0 16 16" id="ic_chat">
    <path d="M14 10C14 10.3536 13.8595 10.6928 13.6095 10.9428C13.3594 11.1929 13.0203 11.3333 12.6667 11.3333H4.66667L2 14V3.33333C2 2.97971 2.14048 2.64057 2.39052 2.39052C2.64057 2.14048 2.97971 2 3.33333 2H12.6667C13.0203 2 13.3594 2.14048 13.6095 2.39052C13.8595 2.64057 14 2.97971 14 3.33333V10Z" stroke="currentColor" stroke-width="1.33333" stroke-linecap="round" stroke-linejoin="round"></path>
  </symbol>
  <symbol fill="none" xmlns="http://www.w3.org/2000/svg" viewBox="0 0 16 16" id="ic_email">
    <path d="M2.66671 13.3334C2.30004 13.3334 1.98615 13.2029 1.72504 12.9417C1.46393 12.6806 1.33337 12.3667 1.33337 12.0001V4.00008C1.33337 3.63341 1.46393 3.31953 1.72504 3.05841C1.98615 2.7973 2.30004 2.66675 2.66671 2.66675H13.3334C13.7 2.66675 14.0139 2.7973 14.275 3.05841C14.5362 3.31953 14.6667 3.63341 14.6667 4.00008V12.0001C14.6667 12.3667 14.5362 12.6806 14.275 12.9417C14.0139 13.2029 13.7 13.3334 13.3334 13.3334H2.66671ZM13.3334 5.33341L8.35004 8.45008C8.29449 8.48342 8.23615 8.50842 8.17504 8.52508C8.11393 8.54175 8.0556 8.55008 8.00004 8.55008C7.94448 8.55008 7.88615 8.54175 7.82504 8.52508C7.76393 8.50842 7.7056 8.48342 7.65004 8.45008L2.66671 5.33341V12.0001H13.3334V5.33341ZM8.00004 7.33342L13.3334 4.00008H2.66671L8.00004 7.33342ZM2.66671 5.50008V4.51675V4.53341V4.52508V5.50008Z" fill="currentColor"></path>
  </symbol>
  <symbol fill="none" xmlns="http://www.w3.org/2000/svg" viewBox="0 0 27 27" id="ic_menu">
    <path d="M4.44461 20.0001C4.12979 20.0001 3.8659 19.8936 3.65294 19.6806C3.43998 19.4677 3.3335 19.2038 3.3335 18.889C3.3335 18.5742 3.43998 18.3103 3.65294 18.0973C3.8659 17.8843 4.12979 17.7779 4.44461 17.7779H22.2224C22.5372 17.7779 22.8011 17.8843 23.0141 18.0973C23.227 18.3103 23.3335 18.5742 23.3335 18.889C23.3335 19.2038 23.227 19.4677 23.0141 19.6806C22.8011 19.8936 22.5372 20.0001 22.2224 20.0001H4.44461ZM4.44461 14.4445C4.12979 14.4445 3.8659 14.338 3.65294 14.1251C3.43998 13.9121 3.3335 13.6482 3.3335 13.3334C3.3335 13.0186 3.43998 12.7547 3.65294 12.5417C3.8659 12.3288 4.12979 12.2223 4.44461 12.2223H22.2224C22.5372 12.2223 22.8011 12.3288 23.0141 12.5417C23.227 12.7547 23.3335 13.0186 23.3335 13.3334C23.3335 13.6482 23.227 13.9121 23.0141 14.1251C22.8011 14.338 22.5372 14.4445 22.2224 14.4445H4.44461ZM4.44461 8.88897C4.12979 8.88897 3.8659 8.78249 3.65294 8.56953C3.43998 8.35656 3.3335 8.09267 3.3335 7.77786C3.3335 7.46304 3.43998 7.19916 3.65294 6.98619C3.8659 6.77323 4.12979 6.66675 4.44461 6.66675H22.2224C22.5372 6.66675 22.8011 6.77323 23.0141 6.98619C23.227 7.19916 23.3335 7.46304 23.3335 7.77786C23.3335 8.09267 23.227 8.35656 23.0141 8.56953C22.8011 8.78249 22.5372 8.88897 22.2224 8.88897H4.44461Z" fill="currentColor"></path>
  </symbol>
  <symbol fill="none" xmlns="http://www.w3.org/2000/svg" viewBox="0 0 16 16" id="ic_phone">
    <path d="M13.3 14C11.9111 14 10.5389 13.6972 9.18333 13.0917C7.82778 12.4861 6.59444 11.6278 5.48333 10.5167C4.37222 9.40556 3.51389 8.17222 2.90833 6.81667C2.30278 5.46111 2 4.08889 2 2.7C2 2.5 2.06667 2.33333 2.2 2.2C2.33333 2.06667 2.5 2 2.7 2H5.4C5.55556 2 5.69444 2.05278 5.81667 2.15833C5.93889 2.26389 6.01111 2.38889 6.03333 2.53333L6.46667 4.86667C6.48889 5.04444 6.48333 5.19444 6.45 5.31667C6.41667 5.43889 6.35556 5.54444 6.26667 5.63333L4.65 7.26667C4.87222 7.67778 5.13611 8.075 5.44167 8.45833C5.74722 8.84167 6.08333 9.21111 6.45 9.56667C6.79444 9.91111 7.15556 10.2306 7.53333 10.525C7.91111 10.8194 8.31111 11.0889 8.73333 11.3333L10.3 9.76667C10.4 9.66667 10.5306 9.59167 10.6917 9.54167C10.8528 9.49167 11.0111 9.47778 11.1667 9.5L13.4667 9.96667C13.6222 10.0111 13.75 10.0917 13.85 10.2083C13.95 10.325 14 10.4556 14 10.6V13.3C14 13.5 13.9333 13.6667 13.8 13.8C13.6667 13.9333 13.5 14 13.3 14ZM4.01667 6L5.11667 4.9L4.83333 3.33333H3.35C3.40556 3.78889 3.48333 4.23889 3.58333 4.68333C3.68333 5.12778 3.82778 5.56667 4.01667 6ZM9.98333 11.9667C10.4167 12.1556 10.8583 12.3056 11.3083 12.4167C11.7583 12.5278 12.2111 12.6 12.6667 12.6333V11.1667L11.1 10.85L9.98333 11.9667Z" fill="currentColor"></path>
  </symbol>
  <symbol fill="none" xmlns="http://www.w3.org/2000/svg" viewBox="0 0 32 32" id="ic_plus">
    <path d="M15 17H9V15H15V9H17V15H23V17H17V23H15V17Z" fill="currentColor"></path>
  </symbol>
  <symbol fill="none" xmlns="http://www.w3.org/2000/svg" viewBox="0 0 32 32" id="ic_smart_control1">
    <path d="M16 9.3335C14.0444 9.3335 12.1389 9.63905 10.2833 10.2502C8.42775 10.8613 6.72219 11.7668 5.16663 12.9668C4.72219 13.3224 4.21663 13.4946 3.64997 13.4835C3.0833 13.4724 2.59997 13.2668 2.19997 12.8668C1.82219 12.4891 1.6333 12.0224 1.6333 11.4668C1.6333 10.9113 1.85552 10.4668 2.29997 10.1335C4.25552 8.57794 6.40552 7.38905 8.74997 6.56683C11.0944 5.74461 13.5111 5.3335 16 5.3335C18.5111 5.3335 20.9333 5.74461 23.2666 6.56683C25.6 7.38905 27.7444 8.57794 29.7 10.1335C30.1444 10.4668 30.3666 10.9113 30.3666 11.4668C30.3666 12.0224 30.1777 12.4891 29.8 12.8668C29.4 13.2668 28.9166 13.4724 28.35 13.4835C27.7833 13.4946 27.2777 13.3224 26.8333 12.9668C25.2777 11.7668 23.5777 10.8613 21.7333 10.2502C19.8889 9.63905 17.9777 9.3335 16 9.3335ZM16 17.3335C15.0889 17.3335 14.2055 17.4502 13.35 17.6835C12.4944 17.9168 11.6777 18.2668 10.9 18.7335C10.4111 19.0446 9.8833 19.1891 9.31663 19.1668C8.74997 19.1446 8.26663 18.9335 7.86663 18.5335C7.48886 18.1557 7.30552 17.6946 7.31663 17.1502C7.32775 16.6057 7.55552 16.1779 7.99997 15.8668C9.17775 15.0446 10.4444 14.4168 11.8 13.9835C13.1555 13.5502 14.5555 13.3335 16 13.3335C17.4444 13.3335 18.8444 13.5502 20.2 13.9835C21.5555 14.4168 22.8222 15.0446 24 15.8668C24.4444 16.1779 24.6722 16.6057 24.6833 17.1502C24.6944 17.6946 24.5111 18.1557 24.1333 18.5335C23.7333 18.9335 23.25 19.1446 22.6833 19.1668C22.1166 19.1891 21.5889 19.0446 21.1 18.7335C20.3222 18.2668 19.5055 17.9168 18.65 17.6835C17.7944 17.4502 16.9111 17.3335 16 17.3335ZM14.1166 25.8835C13.5944 25.3613 13.3333 24.7335 13.3333 24.0002C13.3333 23.2668 13.5944 22.6391 14.1166 22.1168C14.6389 21.5946 15.2666 21.3335 16 21.3335C16.7333 21.3335 17.3611 21.5946 17.8833 22.1168C18.4055 22.6391 18.6666 23.2668 18.6666 24.0002C18.6666 24.7335 18.4055 25.3613 17.8833 25.8835C17.3611 26.4057 16.7333 26.6668 16 26.6668C15.2666 26.6668 14.6389 26.4057 14.1166 25.8835Z" fill="currentColor"></path>
  </symbol>
  <symbol fill="none" xmlns="http://www.w3.org/2000/svg" viewBox="0 0 32 32" id="ic_smart_control2">
    <path d="M16 29.3332C14.1555 29.3332 12.4222 28.9832 10.8 28.2832C9.17774 27.5832 7.76663 26.6332 6.56663 25.4332C5.36663 24.2332 4.41663 22.8221 3.71663 21.1998C3.01663 19.5776 2.66663 17.8443 2.66663 15.9998C2.66663 14.1554 3.01663 12.4221 3.71663 10.7998C4.41663 9.17761 5.36663 7.7665 6.56663 6.5665C7.76663 5.3665 9.17774 4.4165 10.8 3.7165C12.4222 3.0165 14.1555 2.6665 16 2.6665C17.8666 2.6665 19.6055 3.0165 21.2166 3.7165C22.8277 4.4165 24.2333 5.3665 25.4333 6.5665C26.6333 7.7665 27.5833 9.17206 28.2833 10.7832C28.9833 12.3943 29.3333 14.1332 29.3333 15.9998C29.3333 16.2221 29.3277 16.4387 29.3166 16.6498C29.3055 16.8609 29.2888 17.0665 29.2666 17.2665C29.2222 17.6443 29.0611 17.9332 28.7833 18.1332C28.5055 18.3332 28.1777 18.3998 27.8 18.3332C27.4222 18.2665 27.1222 18.0776 26.9 17.7665C26.6777 17.4554 26.5888 17.1109 26.6333 16.7332C26.6333 16.6221 26.6388 16.4998 26.65 16.3665C26.6611 16.2332 26.6666 16.1109 26.6666 15.9998C26.6666 14.5109 26.3944 13.1221 25.85 11.8332C25.3055 10.5443 24.5444 9.41095 23.5666 8.43317C22.5888 7.45539 21.4555 6.69428 20.1666 6.14984C18.8777 5.60539 17.4888 5.33317 16 5.33317C13.0222 5.33317 10.5 6.3665 8.43329 8.43317C6.36663 10.4998 5.33329 13.0221 5.33329 15.9998C5.33329 18.9776 6.36663 21.4998 8.43329 23.5665C10.5 25.6332 13.0222 26.6665 16 26.6665C17 26.6665 17.9611 26.5387 18.8833 26.2832C19.8055 26.0276 20.6777 25.6443 21.5 25.1332C21.8111 24.9554 22.15 24.8887 22.5166 24.9332C22.8833 24.9776 23.1666 25.1554 23.3666 25.4665C23.5888 25.7776 23.6611 26.1165 23.5833 26.4832C23.5055 26.8498 23.3111 27.1332 23 27.3332C21.9555 27.9776 20.85 28.4721 19.6833 28.8165C18.5166 29.1609 17.2888 29.3332 16 29.3332ZM24.4833 23.5165C24.1611 23.1943 24 22.7998 24 22.3332C24 21.8665 24.1611 21.4721 24.4833 21.1498C24.8055 20.8276 25.2 20.6665 25.6666 20.6665C26.1333 20.6665 26.5277 20.8276 26.85 21.1498C27.1722 21.4721 27.3333 21.8665 27.3333 22.3332C27.3333 22.7998 27.1722 23.1943 26.85 23.5165C26.5277 23.8387 26.1333 23.9998 25.6666 23.9998C25.2 23.9998 24.8055 23.8387 24.4833 23.5165ZM17.3333 15.4665L21.3333 19.4665C21.5777 19.7109 21.7 20.0221 21.7 20.3998C21.7 20.7776 21.5777 21.0887 21.3333 21.3332C21.0888 21.5776 20.7777 21.6998 20.4 21.6998C20.0222 21.6998 19.7111 21.5776 19.4666 21.3332L15.0666 16.9332C14.9333 16.7998 14.8333 16.6498 14.7666 16.4832C14.7 16.3165 14.6666 16.1443 14.6666 15.9665V10.6665C14.6666 10.2887 14.7944 9.97206 15.05 9.7165C15.3055 9.46095 15.6222 9.33317 16 9.33317C16.3777 9.33317 16.6944 9.46095 16.95 9.7165C17.2055 9.97206 17.3333 10.2887 17.3333 10.6665V15.4665Z" fill="currentColor"></path>
  </symbol>
  <symbol fill="none" xmlns="http://www.w3.org/2000/svg" viewBox="0 0 32 32" id="ic_smart_control3">
    <path d="M16 25.7998C18.7111 23.3109 20.7222 21.0498 22.0333 19.0165C23.3444 16.9832 24 15.1776 24 13.5998C24 11.1776 23.2278 9.19428 21.6833 7.64984C20.1389 6.10539 18.2444 5.33317 16 5.33317C13.7555 5.33317 11.8611 6.10539 10.3166 7.64984C8.7722 9.19428 7.99998 11.1776 7.99998 13.5998C7.99998 15.1776 8.65554 16.9832 9.96665 19.0165C11.2778 21.0498 13.2889 23.3109 16 25.7998ZM15.0666 28.2665C14.7555 28.1554 14.4778 27.9887 14.2333 27.7665C12.7889 26.4332 11.5111 25.1332 10.4 23.8665C9.28887 22.5998 8.36109 21.3721 7.61665 20.1832C6.8722 18.9943 6.30554 17.8498 5.91665 16.7498C5.52776 15.6498 5.33331 14.5998 5.33331 13.5998C5.33331 10.2665 6.40554 7.61095 8.54998 5.63317C10.6944 3.65539 13.1778 2.6665 16 2.6665C18.8222 2.6665 21.3055 3.65539 23.45 5.63317C25.5944 7.61095 26.6666 10.2665 26.6666 13.5998C26.6666 14.5998 26.4722 15.6498 26.0833 16.7498C25.6944 17.8498 25.1278 18.9943 24.3833 20.1832C23.6389 21.3721 22.7111 22.5998 21.6 23.8665C20.4889 25.1332 19.2111 26.4332 17.7666 27.7665C17.5222 27.9887 17.2444 28.1554 16.9333 28.2665C16.6222 28.3776 16.3111 28.4332 16 28.4332C15.6889 28.4332 15.3778 28.3776 15.0666 28.2665ZM17.8833 15.2165C18.4055 14.6943 18.6666 14.0665 18.6666 13.3332C18.6666 12.5998 18.4055 11.9721 17.8833 11.4498C17.3611 10.9276 16.7333 10.6665 16 10.6665C15.2666 10.6665 14.6389 10.9276 14.1166 11.4498C13.5944 11.9721 13.3333 12.5998 13.3333 13.3332C13.3333 14.0665 13.5944 14.6943 14.1166 15.2165C14.6389 15.7387 15.2666 15.9998 16 15.9998C16.7333 15.9998 17.3611 15.7387 17.8833 15.2165Z" fill="currentColor"></path>
  </symbol>
  <symbol fill="none" xmlns="http://www.w3.org/2000/svg" viewBox="0 0 32 32" id="ic_smart_control4">
    <path d="M13.1667 17.4998C12.3889 16.7221 12.0001 15.7776 12.0001 14.6665V6.6665C12.0001 5.55539 12.3889 4.61095 13.1667 3.83317C13.9445 3.05539 14.8889 2.6665 16.0001 2.6665C17.1112 2.6665 18.0556 3.05539 18.8334 3.83317C19.6112 4.61095 20.0001 5.55539 20.0001 6.6665V14.6665C20.0001 15.7776 19.6112 16.7221 18.8334 17.4998C18.0556 18.2776 17.1112 18.6665 16.0001 18.6665C14.8889 18.6665 13.9445 18.2776 13.1667 17.4998ZM14.6667 26.6665V23.8998C12.6223 23.6109 10.8723 22.7443 9.41673 21.2998C7.96117 19.8554 7.07784 18.0998 6.76673 16.0332C6.72228 15.6554 6.82228 15.3332 7.06673 15.0665C7.31117 14.7998 7.62228 14.6665 8.00006 14.6665C8.37784 14.6665 8.6945 14.7943 8.95006 15.0498C9.20562 15.3054 9.37784 15.6221 9.46673 15.9998C9.77784 17.5554 10.5501 18.8332 11.7834 19.8332C13.0167 20.8332 14.4223 21.3332 16.0001 21.3332C17.6001 21.3332 19.0112 20.8276 20.2334 19.8165C21.4556 18.8054 22.2223 17.5332 22.5334 15.9998C22.6223 15.6221 22.7945 15.3054 23.0501 15.0498C23.3056 14.7943 23.6223 14.6665 24.0001 14.6665C24.3778 14.6665 24.6889 14.7998 24.9334 15.0665C25.1778 15.3332 25.2778 15.6554 25.2334 16.0332C24.9223 18.0554 24.0445 19.7998 22.6001 21.2665C21.1556 22.7332 19.4001 23.6109 17.3334 23.8998V26.6665C17.3334 27.0443 17.2056 27.3609 16.9501 27.6165C16.6945 27.8721 16.3778 27.9998 16.0001 27.9998C15.6223 27.9998 15.3056 27.8721 15.0501 27.6165C14.7945 27.3609 14.6667 27.0443 14.6667 26.6665ZM16.9501 15.6165C17.2056 15.3609 17.3334 15.0443 17.3334 14.6665V6.6665C17.3334 6.28873 17.2056 5.97206 16.9501 5.7165C16.6945 5.46095 16.3778 5.33317 16.0001 5.33317C15.6223 5.33317 15.3056 5.46095 15.0501 5.7165C14.7945 5.97206 14.6667 6.28873 14.6667 6.6665V14.6665C14.6667 15.0443 14.7945 15.3609 15.0501 15.6165C15.3056 15.8721 15.6223 15.9998 16.0001 15.9998C16.3778 15.9998 16.6945 15.8721 16.9501 15.6165Z" fill="currentColor"></path>
  </symbol>
  <symbol fill="none" xmlns="http://www.w3.org/2000/svg" viewBox="0 0 32 32" id="ic_step1">
    <path d="M16 28C15.6222 28 15.3055 27.8722 15.05 27.6167C14.7944 27.3611 14.6667 27.0444 14.6667 26.6667C14.6667 26.2889 14.7944 25.9722 15.05 25.7167C15.3055 25.4611 15.6222 25.3333 16 25.3333H25.3333V15.8667C25.3333 13.2667 24.4278 11.0611 22.6167 9.25C20.8055 7.43889 18.6 6.53333 16 6.53333C13.4 6.53333 11.1944 7.43889 9.38332 9.25C7.57221 11.0611 6.66666 13.2667 6.66666 15.8667V22.6667C6.66666 23.0444 6.53888 23.3611 6.28332 23.6167C6.02777 23.8722 5.7111 24 5.33332 24C4.59999 24 3.97221 23.7389 3.44999 23.2167C2.92777 22.6944 2.66666 22.0667 2.66666 21.3333V18.6667C2.66666 18.2 2.78332 17.7611 3.01666 17.35C3.24999 16.9389 3.57777 16.6111 3.99999 16.3667L4.09999 14.6C4.27777 13.0889 4.71666 11.6889 5.41666 10.4C6.11666 9.11111 6.99443 7.98889 8.04999 7.03333C9.10555 6.07778 10.3167 5.33333 11.6833 4.8C13.05 4.26667 14.4889 4 16 4C17.5111 4 18.9444 4.26667 20.3 4.8C21.6555 5.33333 22.8667 6.07222 23.9333 7.01667C25 7.96111 25.8778 9.07778 26.5667 10.3667C27.2555 11.6556 27.7 13.0556 27.9 14.5667L28 16.3C28.4222 16.5 28.75 16.8 28.9833 17.2C29.2167 17.6 29.3333 18.0222 29.3333 18.4667V21.5333C29.3333 21.9778 29.2167 22.4 28.9833 22.8C28.75 23.2 28.4222 23.5 28 23.7V25.3333C28 26.0667 27.7389 26.6944 27.2167 27.2167C26.6944 27.7389 26.0667 28 25.3333 28H16ZM11.05 18.2833C10.7944 18.0278 10.6667 17.7111 10.6667 17.3333C10.6667 16.9556 10.7944 16.6389 11.05 16.3833C11.3055 16.1278 11.6222 16 12 16C12.3778 16 12.6944 16.1278 12.95 16.3833C13.2055 16.6389 13.3333 16.9556 13.3333 17.3333C13.3333 17.7111 13.2055 18.0278 12.95 18.2833C12.6944 18.5389 12.3778 18.6667 12 18.6667C11.6222 18.6667 11.3055 18.5389 11.05 18.2833ZM19.05 18.2833C18.7944 18.0278 18.6667 17.7111 18.6667 17.3333C18.6667 16.9556 18.7944 16.6389 19.05 16.3833C19.3055 16.1278 19.6222 16 20 16C20.3778 16 20.6944 16.1278 20.95 16.3833C21.2055 16.6389 21.3333 16.9556 21.3333 17.3333C21.3333 17.7111 21.2055 18.0278 20.95 18.2833C20.6944 18.5389 20.3778 18.6667 20 18.6667C19.6222 18.6667 19.3055 18.5389 19.05 18.2833ZM8.03332 16.6C7.87777 14.2444 8.58888 12.2222 10.1667 10.5333C11.7444 8.84444 13.7111 8 16.0667 8C18.0444 8 19.7833 8.62778 21.2833 9.88333C22.7833 11.1389 23.6889 12.7444 24 14.7C21.9778 14.6778 20.1167 14.1333 18.4167 13.0667C16.7167 12 15.4111 10.5556 14.5 8.73333C14.1444 10.5111 13.3944 12.0944 12.25 13.4833C11.1055 14.8722 9.69999 15.9111 8.03332 16.6Z" fill="currentColor"></path>
  </symbol>
  <symbol fill="none" xmlns="http://www.w3.org/2000/svg" viewBox="0 0 32 32" id="ic_step2">
    <path d="M20 25.3333V24H17.3334C16.6 24 15.9722 23.7389 15.45 23.2167C14.9278 22.6944 14.6667 22.0667 14.6667 21.3333V10.6667H12V12C12 12.7333 11.7389 13.3611 11.2167 13.8833C10.6945 14.4056 10.0667 14.6667 9.33335 14.6667H5.33335C4.60002 14.6667 3.97224 14.4056 3.45002 13.8833C2.9278 13.3611 2.66669 12.7333 2.66669 12V6.66667C2.66669 5.93333 2.9278 5.30556 3.45002 4.78333C3.97224 4.26111 4.60002 4 5.33335 4H9.33335C10.0667 4 10.6945 4.26111 11.2167 4.78333C11.7389 5.30556 12 5.93333 12 6.66667V8H20V6.66667C20 5.93333 20.2611 5.30556 20.7834 4.78333C21.3056 4.26111 21.9334 4 22.6667 4H26.6667C27.4 4 28.0278 4.26111 28.55 4.78333C29.0722 5.30556 29.3334 5.93333 29.3334 6.66667V12C29.3334 12.7333 29.0722 13.3611 28.55 13.8833C28.0278 14.4056 27.4 14.6667 26.6667 14.6667H22.6667C21.9334 14.6667 21.3056 14.4056 20.7834 13.8833C20.2611 13.3611 20 12.7333 20 12V10.6667H17.3334V21.3333H20V20C20 19.2667 20.2611 18.6389 20.7834 18.1167C21.3056 17.5944 21.9334 17.3333 22.6667 17.3333H26.6667C27.4 17.3333 28.0278 17.5944 28.55 18.1167C29.0722 18.6389 29.3334 19.2667 29.3334 20V25.3333C29.3334 26.0667 29.0722 26.6944 28.55 27.2167C28.0278 27.7389 27.4 28 26.6667 28H22.6667C21.9334 28 21.3056 27.7389 20.7834 27.2167C20.2611 26.6944 20 26.0667 20 25.3333ZM22.6667 12H26.6667V6.66667H22.6667V12ZM22.6667 25.3333H26.6667V20H22.6667V25.3333ZM5.33335 12H9.33335V6.66667H5.33335V12Z" fill="currentColor"></path>
  </symbol>
  <symbol fill="none" xmlns="http://www.w3.org/2000/svg" viewBox="0 0 32 32" id="ic_step3">
    <path d="M14.6 16.933L12.6667 15.033C12.4222 14.7886 12.1167 14.6663 11.75 14.6663C11.3833 14.6663 11.0667 14.7997 10.8 15.0663C10.5556 15.3108 10.4333 15.6219 10.4333 15.9997C10.4333 16.3774 10.5556 16.6886 10.8 16.933L13.6667 19.7997C13.9333 20.0663 14.2444 20.1997 14.6 20.1997C14.9556 20.1997 15.2667 20.0663 15.5333 19.7997L21.2 14.133C21.4667 13.8663 21.5944 13.5552 21.5833 13.1997C21.5722 12.8441 21.4444 12.533 21.2 12.2663C20.9333 11.9997 20.6167 11.8608 20.25 11.8497C19.8833 11.8386 19.5667 11.9663 19.3 12.233L14.6 16.933ZM10.8667 28.9997L8.93333 25.733L5.26666 24.933C4.93333 24.8663 4.66666 24.6941 4.46666 24.4163C4.26666 24.1386 4.18888 23.833 4.23333 23.4997L4.6 19.733L2.1 16.8663C1.87777 16.6219 1.76666 16.333 1.76666 15.9997C1.76666 15.6663 1.87777 15.3774 2.1 15.133L4.6 12.2663L4.23333 8.49967C4.18888 8.16634 4.26666 7.86078 4.46666 7.583C4.66666 7.30523 4.93333 7.133 5.26666 7.06634L8.93333 6.26634L10.8667 2.99967C11.0444 2.71078 11.2889 2.51634 11.6 2.41634C11.9111 2.31634 12.2222 2.333 12.5333 2.46634L16 3.933L19.4667 2.46634C19.7778 2.333 20.0889 2.31634 20.4 2.41634C20.7111 2.51634 20.9556 2.71078 21.1333 2.99967L23.0667 6.26634L26.7333 7.06634C27.0667 7.133 27.3333 7.30523 27.5333 7.583C27.7333 7.86078 27.8111 8.16634 27.7667 8.49967L27.4 12.2663L29.9 15.133C30.1222 15.3774 30.2333 15.6663 30.2333 15.9997C30.2333 16.333 30.1222 16.6219 29.9 16.8663L27.4 19.733L27.7667 23.4997C27.8111 23.833 27.7333 24.1386 27.5333 24.4163C27.3333 24.6941 27.0667 24.8663 26.7333 24.933L23.0667 25.733L21.1333 28.9997C20.9556 29.2886 20.7111 29.483 20.4 29.583C20.0889 29.683 19.7778 29.6663 19.4667 29.533L16 28.0663L12.5333 29.533C12.2222 29.6663 11.9111 29.683 11.6 29.583C11.2889 29.483 11.0444 29.2886 10.8667 28.9997ZM12.6 26.5997L16 25.133L19.4667 26.5997L21.3333 23.3997L25 22.533L24.6667 18.7997L27.1333 15.9997L24.6667 13.133L25 9.39967L21.3333 8.59967L19.4 5.39967L16 6.86634L12.5333 5.39967L10.6667 8.59967L7 9.39967L7.33333 13.133L4.86666 15.9997L7.33333 18.7997L7 22.5997L10.6667 23.3997L12.6 26.5997Z" fill="currentColor"></path>
  </symbol>
  <symbol fill="none" xmlns="http://www.w3.org/2000/svg" viewBox="0 0 32 32" id="ic_step4">
    <path d="M9.33329 18.6668V26.6668C9.33329 27.0446 9.20551 27.3613 8.94996 27.6168C8.6944 27.8724 8.37774 28.0002 7.99996 28.0002C7.62218 28.0002 7.30551 27.8724 7.04996 27.6168C6.7944 27.3613 6.66663 27.0446 6.66663 26.6668V6.66683C6.66663 6.28905 6.7944 5.97238 7.04996 5.71683C7.30551 5.46127 7.62218 5.3335 7.99996 5.3335H17.5666C17.8777 5.3335 18.1555 5.4335 18.4 5.6335C18.6444 5.8335 18.8 6.08905 18.8666 6.40016L19.2 8.00016H25.3333C25.7111 8.00016 26.0277 8.12794 26.2833 8.3835C26.5388 8.63905 26.6666 8.95572 26.6666 9.3335V20.0002C26.6666 20.3779 26.5388 20.6946 26.2833 20.9502C26.0277 21.2057 25.7111 21.3335 25.3333 21.3335H18.4333C18.1222 21.3335 17.8444 21.2335 17.6 21.0335C17.3555 20.8335 17.2 20.5779 17.1333 20.2668L16.8 18.6668H9.33329ZM19.5333 18.6668H24V10.6668H18.1C17.7888 10.6668 17.5111 10.5668 17.2666 10.3668C17.0222 10.1668 16.8666 9.91127 16.8 9.60016L16.4666 8.00016H9.33329V16.0002H17.9C18.2111 16.0002 18.4888 16.1002 18.7333 16.3002C18.9777 16.5002 19.1333 16.7557 19.2 17.0668L19.5333 18.6668Z" fill="currentColor"></path>
  </symbol>
  <symbol fill="none" xmlns="http://www.w3.org/2000/svg" viewBox="0 0 14 14" id="ic_time">
    <path d="M7 12.8334C10.2217 12.8334 12.8333 10.2217 12.8333 7.00008C12.8333 3.77842 10.2217 1.16675 7 1.16675C3.77834 1.16675 1.16667 3.77842 1.16667 7.00008C1.16667 10.2217 3.77834 12.8334 7 12.8334Z" stroke="currentColor" stroke-width="1.16667" stroke-linecap="round" stroke-linejoin="round"></path>
    <path d="M7 3.5V7L9.33333 8.16667" stroke="currentColor" stroke-width="1.16667" stroke-linecap="round" stroke-linejoin="round"></path>
  </symbol>
</svg>